<svg xmlns="http://www.w3.org/2000/svg" viewBox="0 0 64 64" role="img" aria-label="Hongbo Cosplay">
  <rect width="64" height="64" rx="14" fill="#0b0c0e"/>
  <path d="M32 11c9.7 0 17.5 6.6 17.5 16.2 0 13-8.4 25.8-17.5 25.8S14.5 40.2 14.5 27.2C14.5 17.6 22.3 11 32 11Z" fill="#e0a93f"/>
  <path d="M22.2 27.4c2-1.7 4.7-1.7 6.7 0-2 2-4.7 2-6.7 0Z" fill="#0b0c0e"/>
  <path d="M35.1 27.4c2-1.7 4.7-1.7 6.7 0-2 2-4.7 2-6.7 0Z" fill="#0b0c0e"/>
  <path d="M27.5 41.5c3-2.4 6-2.4 9 0" fill="none" stroke="#0b0c0e" stroke-width="2.6" stroke-linecap="round"/>
</svg>
